<?xml version="1.0" standalone="no"?>
<!DOCTYPE svg PUBLIC "-//W3C//DTD SVG 20010904//EN"
 "http://www.w3.org/TR/2001/REC-SVG-20010904/DTD/svg10.dtd">
<svg version="1.0" xmlns="http://www.w3.org/2000/svg"
 width="196.000000pt" height="196.000000pt" viewBox="0 0 196.000000 196.000000"
 preserveAspectRatio="xMidYMid meet">
<metadata>
Created by potrace 1.11, written by Peter Selinger 2001-2013
</metadata>
<g transform="translate(0.000000,196.000000) scale(0.100000,-0.100000)"
fill="#000000" stroke="none">
<path d="M883 1746 c-23 -8 -64 -26 -90 -41 -49 -28 -383 -351 -383 -370 0 -6
66 -77 148 -158 l147 -147 305 305 c349 350 331 314 192 383 -70 34 -82 37
-176 39 -65 2 -116 -2 -143 -11z"/>
<path d="M1205 1440 l-150 -150 308 -308 308 -307 25 30 c40 47 82 144 93 215
16 98 -9 218 -60 293 -22 32 -359 377 -369 377 -3 0 -73 -68 -155 -150z"/>
<path d="M311 1234 c-90 -126 -106 -293 -42 -431 28 -58 58 -94 214 -251 l182
-182 147 147 c82 81 148 152 148 158 0 6 -137 147 -304 314 l-303 303 -42 -58z"/>
<path d="M1012 627 l-304 -304 32 -27 c145 -121 375 -126 530 -11 25 19 115
104 200 189 l155 156 -150 150 c-82 82 -152 150 -155 150 -3 0 -142 -137 -308
-303z"/>
</g>
</svg>
